#Comment line ignore any data following # character 
#Hierarchical Translation and Rotation (.htr) file 
[Header]	
#Header keywords are followed by a single value 
FileType HTR		#Single word string
DataType HTRS		#Translation followed by rotation and scale data
FileVersion 1		#integer
NumSegments 84		#integer
NumFrames 2		#integer
DataFrameRate 30		#integer, data frame rate in this file
EulerRotationOrder ZYX
CalibrationUnits mm
RotationUnits Degrees
GlobalAxisofGravity Y
BoneLengthAxis Y
ScaleFactor 1.00
[SegmentNames&Hierarchy]
#CHILD	PARENT
MASTER GLOBAL
root MASTER
chest root
L_mid_tent01 root
R_mid_tent01 root
spine01 root
Bip01_Neck chest
L_humerus chest
R_humerus chest
weapon_bone chest
Bip01_Head Bip01_Neck
eye_left_bone Bip01_Head
eye_right_bone Bip01_Head
L_forearm L_humerus
L_front_hand L_forearm
L_weapon_bone L_forearm
L_front_hand01_01 L_front_hand
L_front_hand02_01 L_front_hand
L_front_hand03_01 L_front_hand
L_front_hand01_02 L_front_hand01_01
L_front_hand02_02 L_front_hand02_01
L_front_hand03_02 L_front_hand03_01
R_forearm R_humerus
R_front_hand R_forearm
R_weapon_bone R_forearm
R_front_hand01_01 R_front_hand
R_front_hand02_01 R_front_hand
R_front_hand03_01 R_front_hand
R_front_hand01_02 R_front_hand01_01
R_front_hand02_02 R_front_hand02_01
R_front_hand03_02 R_front_hand03_01
null_rope01_connect L_mid_tent01
Rope1_Seg01 null_rope01_connect
Rope1_Seg02 Rope1_Seg01
Rope1_Seg03 Rope1_Seg02
Rope1_Seg04 Rope1_Seg03
Rope1_Seg05 Rope1_Seg04
Rope1_Seg06 Rope1_Seg05
Rope1_Seg07 Rope1_Seg06
Rope1_Seg09 Rope1_Seg07
L_mid_hand01 Rope1_Seg09
L_mid_hand02 Rope1_Seg09
L_mid_hand03 Rope1_Seg09
null_rope02_connect R_mid_tent01
Rope2_Seg01 null_rope02_connect
Rope2_Seg02 Rope2_Seg01
Rope2_Seg03 Rope2_Seg02
Rope2_Seg04 Rope2_Seg03
Rope2_Seg05 Rope2_Seg04
Rope2_Seg06 Rope2_Seg05
Rope2_Seg07 Rope2_Seg06
Rope2_Seg09 Rope2_Seg07
R_mid_hand01 Rope2_Seg09
R_mid_hand02 Rope2_Seg09
R_mid_hand03 Rope2_Seg09
spine02 spine01
spine03 spine02
pelvis spine03
null_rope03_connect pelvis
null_rope04_connect pelvis
Rope3_Seg01 null_rope03_connect
Rope3_Seg02 Rope3_Seg01
Rope3_Seg03 Rope3_Seg02
Rope3_Seg04 Rope3_Seg03
Rope3_Seg05 Rope3_Seg04
Rope3_Seg06 Rope3_Seg05
Rope3_Seg07 Rope3_Seg06
Rope3_Seg08 Rope3_Seg07
Rope3_Seg09 Rope3_Seg08
R_rear_hand01 Rope3_Seg09
R_rear_hand02 Rope3_Seg09
R_rear_hand03 Rope3_Seg09
Rope4_Seg01 null_rope04_connect
Rope4_Seg02 Rope4_Seg01
Rope4_Seg03 Rope4_Seg02
Rope4_Seg04 Rope4_Seg03
Rope4_Seg05 Rope4_Seg04
Rope4_Seg06 Rope4_Seg05
Rope4_Seg07 Rope4_Seg06
Rope4_Seg08 Rope4_Seg07
Rope4_Seg09 Rope4_Seg08
L_rear_hand01 Rope4_Seg09
L_rear_hand02 Rope4_Seg09
L_rear_hand03 Rope4_Seg09
[BasePosition]
#SegmentName Tx, Ty, Tz, Rx, Ry, Rz, BoneLength
MASTER 0.000000 0.000000 0.000000 -90.000000 0.000000 0.000000 10.000000 
root 0.000000 0.000000 0.000000 0.000000 0.000000 0.000000 10.000000 
chest 0.000000 0.000000 0.000000 0.000000 0.000000 0.000000 10.000000 
L_mid_tent01 0.000000 0.000000 0.000000 0.000000 0.000000 0.000000 10.000000 
R_mid_tent01 0.000000 0.000000 0.000000 0.000000 0.000000 0.000000 10.000000 
spine01 0.000000 0.000000 0.000000 0.000000 0.000000 0.000000 10.000000 
Bip01_Neck 0.000000 0.000000 0.000000 0.000000 0.000000 0.000000 10.000000 
L_humerus 0.000000 0.000000 0.000000 0.000000 0.000000 0.000000 10.000000 
R_humerus 0.000000 0.000000 0.000000 0.000000 0.000000 0.000000 10.000000 
weapon_bone 0.000000 0.000000 0.000000 0.000000 0.000000 0.000000 10.000000 
Bip01_Head 0.000000 0.000000 0.000000 0.000000 0.000000 0.000000 10.000000 
eye_left_bone 0.000000 0.000000 0.000000 0.000000 0.000000 0.000000 10.000000 
eye_right_bone 0.000000 0.000000 0.000000 0.000000 0.000000 0.000000 10.000000 
L_forearm 0.000000 0.000000 0.000000 0.000000 0.000000 0.000000 10.000000 
L_front_hand 0.000000 0.000000 0.000000 0.000000 0.000000 0.000000 10.000000 
L_weapon_bone 0.000000 0.000000 0.000000 0.000000 0.000000 0.000000 10.000000 
L_front_hand01_01 0.000000 0.000000 0.000000 0.000000 0.000000 0.000000 10.000000 
L_front_hand02_01 0.000000 0.000000 0.000000 0.000000 0.000000 0.000000 10.000000 
L_front_hand03_01 0.000000 0.000000 0.000000 0.000000 0.000000 0.000000 10.000000 
L_front_hand01_02 0.000000 0.000000 0.000000 0.000000 0.000000 0.000000 10.000000 
L_front_hand02_02 0.000000 0.000000 0.000000 0.000000 0.000000 0.000000 10.000000 
L_front_hand03_02 0.000000 0.000000 0.000000 0.000000 0.000000 0.000000 10.000000 
R_forearm 0.000000 0.000000 0.000000 0.000000 0.000000 0.000000 10.000000 
R_front_hand 0.000000 0.000000 0.000000 0.000000 0.000000 0.000000 10.000000 
R_weapon_bone 0.000000 0.000000 0.000000 0.000000 0.000000 0.000000 10.000000 
R_front_hand01_01 0.000000 0.000000 0.000000 0.000000 0.000000 0.000000 10.000000 
R_front_hand02_01 0.000000 0.000000 0.000000 0.000000 0.000000 0.000000 10.000000 
R_front_hand03_01 0.000000 0.000000 0.000000 0.000000 0.000000 0.000000 10.000000 
R_front_hand01_02 0.000000 0.000000 0.000000 0.000000 0.000000 0.000000 10.000000 
R_front_hand02_02 0.000000 0.000000 0.000000 0.000000 0.000000 0.000000 10.000000 
R_front_hand03_02 0.000000 0.000000 0.000000 0.000000 0.000000 0.000000 10.000000 
null_rope01_connect 0.000000 0.000000 0.000000 0.000000 0.000000 0.000000 10.000000 
Rope1_Seg01 0.000000 0.000000 0.000000 0.000000 0.000000 0.000000 10.000000 
Rope1_Seg02 0.000000 0.000000 0.000000 0.000000 0.000000 0.000000 10.000000 
Rope1_Seg03 0.000000 0.000000 0.000000 0.000000 0.000000 0.000000 10.000000 
Rope1_Seg04 0.000000 0.000000 0.000000 0.000000 0.000000 0.000000 10.000000 
Rope1_Seg05 0.000000 0.000000 0.000000 0.000000 0.000000 0.000000 10.000000 
Rope1_Seg06 0.000000 0.000000 0.000000 0.000000 0.000000 0.000000 10.000000 
Rope1_Seg07 0.000000 0.000000 0.000000 0.000000 0.000000 0.000000 10.000000 
Rope1_Seg09 0.000000 0.000000 0.000000 0.000000 0.000000 0.000000 10.000000 
L_mid_hand01 0.000000 0.000000 0.000000 0.000000 0.000000 0.000000 10.000000 
L_mid_hand02 0.000000 0.000000 0.000000 0.000000 0.000000 0.000000 10.000000 
L_mid_hand03 0.000000 0.000000 0.000000 0.000000 0.000000 0.000000 10.000000 
null_rope02_connect 0.000000 0.000000 0.000000 0.000000 0.000000 0.000000 10.000000 
Rope2_Seg01 0.000000 0.000000 0.000000 0.000000 0.000000 0.000000 10.000000 
Rope2_Seg02 0.000000 0.000000 0.000000 0.000000 0.000000 0.000000 10.000000 
Rope2_Seg03 0.000000 0.000000 0.000000 0.000000 0.000000 0.000000 10.000000 
Rope2_Seg04 0.000000 0.000000 0.000000 0.000000 0.000000 0.000000 10.000000 
Rope2_Seg05 0.000000 0.000000 0.000000 0.000000 0.000000 0.000000 10.000000 
Rope2_Seg06 0.000000 0.000000 0.000000 0.000000 0.000000 0.000000 10.000000 
Rope2_Seg07 0.000000 0.000000 0.000000 0.000000 0.000000 0.000000 10.000000 
Rope2_Seg09 0.000000 0.000000 0.000000 0.000000 0.000000 0.000000 10.000000 
R_mid_hand01 0.000000 0.000000 0.000000 0.000000 0.000000 0.000000 10.000000 
R_mid_hand02 0.000000 0.000000 0.000000 0.000000 0.000000 0.000000 10.000000 
R_mid_hand03 0.000000 0.000000 0.000000 0.000000 0.000000 0.000000 10.000000 
spine02 0.000000 0.000000 0.000000 0.000000 0.000000 0.000000 10.000000 
spine03 0.000000 0.000000 0.000000 0.000000 0.000000 0.000000 10.000000 
pelvis 0.000000 0.000000 0.000000 0.000000 0.000000 0.000000 10.000000 
null_rope03_connect 0.000000 0.000000 0.000000 0.000000 0.000000 0.000000 10.000000 
null_rope04_connect 0.000000 0.000000 0.000000 0.000000 0.000000 0.000000 10.000000 
Rope3_Seg01 0.000000 0.000000 0.000000 0.000000 0.000000 0.000000 10.000000 
Rope3_Seg02 0.000000 0.000000 0.000000 0.000000 0.000000 0.000000 10.000000 
Rope3_Seg03 0.000000 0.000000 0.000000 0.000000 0.000000 0.000000 10.000000 
Rope3_Seg04 0.000000 0.000000 0.000000 0.000000 0.000000 0.000000 10.000000 
Rope3_Seg05 0.000000 0.000000 0.000000 0.000000 0.000000 0.000000 10.000000 
Rope3_Seg06 0.000000 0.000000 0.000000 0.000000 0.000000 0.000000 10.000000 
Rope3_Seg07 0.000000 0.000000 0.000000 0.000000 0.000000 0.000000 10.000000 
Rope3_Seg08 0.000000 0.000000 0.000000 0.000000 0.000000 0.000000 10.000000 
Rope3_Seg09 0.000000 0.000000 0.000000 0.000000 0.000000 0.000000 10.000000 
R_rear_hand01 0.000000 0.000000 0.000000 0.000000 0.000000 0.000000 10.000000 
R_rear_hand02 0.000000 0.000000 0.000000 0.000000 0.000000 0.000000 10.000000 
R_rear_hand03 0.000000 0.000000 0.000000 0.000000 0.000000 0.000000 10.000000 
Rope4_Seg01 0.000000 0.000000 0.000000 0.000000 0.000000 0.000000 10.000000 
Rope4_Seg02 0.000000 0.000000 0.000000 0.000000 0.000000 0.000000 10.000000 
Rope4_Seg03 0.000000 0.000000 0.000000 0.000000 0.000000 0.000000 10.000000 
Rope4_Seg04 0.000000 0.000000 0.000000 0.000000 0.000000 0.000000 10.000000 
Rope4_Seg05 0.000000 0.000000 0.000000 0.000000 0.000000 0.000000 10.000000 
Rope4_Seg06 0.000000 0.000000 0.000000 0.000000 0.000000 0.000000 10.000000 
Rope4_Seg07 0.000000 0.000000 0.000000 0.000000 0.000000 0.000000 10.000000 
Rope4_Seg08 0.000000 0.000000 0.000000 0.000000 0.000000 0.000000 10.000000 
Rope4_Seg09 0.000000 0.000000 0.000000 0.000000 0.000000 0.000000 10.000000 
L_rear_hand01 0.000000 0.000000 0.000000 0.000000 0.000000 0.000000 10.000000 
L_rear_hand02 0.000000 0.000000 0.000000 0.000000 0.000000 0.000000 10.000000 
L_rear_hand03 0.000000 0.000000 0.000000 0.000000 0.000000 0.000000 10.000000 
#Beginning of Data. Separated by tabs
#Fr	Tx	Ty	Tz	Rx	Ry	Rz	SF
[MASTER]
1 0.000003 0.000000 0.000000 0.001660 0.001660 0.001660 0.000003
2 -0.000009 82.199005 375.201904 0.001660 0.001660 0.001660 384.100464
[root]
1 -16.502304 9.364137 1448.320068 -91.728889 -11.584497 -89.471619 1448.444336
2 -16.502304 7.869615 1449.766968 -91.714699 -11.390946 -89.501045 1449.882202
[chest]
1 -84.512650 -34.090519 0.000000 -2.170494 -0.006436 168.239609 91.129311
2 -84.512650 -34.090519 0.000000 -1.862561 0.798615 170.948715 91.129311
[L_mid_tent01]
1 27.299059 22.179106 -249.918701 -20.661392 12.026043 12.983022 252.381683
2 27.299061 22.179113 -249.918701 -18.189867 15.029927 21.918192 252.381683
[R_mid_tent01]
1 23.228794 24.509907 226.238495 -165.192200 -17.956036 24.056787 228.744751
2 23.228794 24.509907 226.238495 -168.898117 -18.033903 29.885405 228.744751
[spine01]
1 -0.361383 -0.195265 0.000000 0.001947 0.001312 22.051847 0.410763
2 -0.361383 -0.195265 0.000000 0.001948 0.001310 22.159370 0.410763
[Bip01_Neck]
1 165.484543 71.581718 0.000119 176.643677 -1.657967 43.431911 180.302734
2 165.484543 71.581718 0.000119 176.643677 -1.657967 43.431915 180.302734
[L_humerus]
1 -13.983130 -135.272980 -120.471481 -5.480129 68.873367 84.573456 181.680161
2 -13.983130 -135.272980 -120.471481 -15.167777 75.190422 78.204903 181.680161
[R_humerus]
1 -13.983309 -135.273102 125.287651 27.897165 -69.888802 67.752319 184.909012
2 -13.983309 -135.273102 125.287651 55.410706 -76.737671 43.858967 184.909012
[weapon_bone]
1 235.964890 -300.705902 0.000000 0.000000 -89.951546 -128.212341 382.234833
2 235.964890 -300.705902 0.000000 0.000000 -89.951546 -128.212341 382.234833
[Bip01_Head]
1 213.444122 185.715408 11.776962 4.962490 2.797846 -43.898743 283.173645
2 213.443939 185.716141 11.768106 4.962490 2.797845 -43.898743 283.173615
[eye_left_bone]
1 -24.626970 125.451866 -64.772606 0.000000 -90.000000 -99.840431 143.318359
2 -24.626970 125.451866 -64.772606 0.000000 -90.000000 -99.840431 143.318359
[eye_right_bone]
1 -24.626970 125.451866 64.327362 0.000000 -89.965736 80.156380 143.117676
2 -24.626970 125.451866 64.327362 0.000000 -89.965736 80.156380 143.117676
[L_forearm]
1 322.776093 0.000000 -0.000119 0.000396 -0.002314 -109.419975 322.776093
2 322.776093 0.000000 -0.000119 0.000446 -0.002304 -111.927406 322.776093
[L_front_hand]
1 241.149185 -0.042021 -3.300071 -178.667953 -1.835447 -27.422350 241.171753
2 241.149185 -0.042021 -3.300071 -178.584976 -1.773612 -29.960468 241.171753
[L_weapon_bone]
1 156.183838 0.000000 0.000000 0.000014 0.000007 0.000001 156.183838
2 156.183838 0.000000 0.000000 0.000014 0.000007 0.000001 156.183838
[L_front_hand01_01]
1 86.095154 20.947098 -0.655860 -0.366594 -0.477154 75.385574 88.609184
2 86.095154 20.947098 -0.655860 -0.366594 -0.477154 75.385582 88.609184
[L_front_hand02_01]
1 86.935165 -11.437475 24.513514 154.399796 -59.883835 -61.369587 91.046425
2 86.935165 -11.437475 24.513514 154.399796 -59.883835 -61.369587 91.046425
[L_front_hand03_01]
1 86.637497 -14.123976 -20.424902 -153.913849 58.118122 -62.702866 90.126129
2 86.637497 -14.123976 -20.424902 -153.913849 58.118122 -62.702866 90.126129
[L_front_hand01_02]
1 71.020905 -0.000179 0.000030 0.000325 -0.002325 -105.915688 71.020905
2 71.020905 -0.000179 0.000030 0.000324 -0.002325 -105.870499 71.020905
[L_front_hand02_02]
1 71.020927 -0.000119 0.000060 0.000325 -0.002325 -105.915688 71.020927
2 71.020927 -0.000119 0.000060 0.000324 -0.002325 -105.870499 71.020927
[L_front_hand03_02]
1 71.020905 -0.000060 0.000060 0.000325 -0.002325 -105.915688 71.020905
2 71.020905 -0.000060 0.000060 0.000324 -0.002325 -105.870499 71.020905
[R_forearm]
1 322.776428 -0.000060 0.000030 0.202103 0.065158 -108.062805 322.776428
2 322.776428 -0.000060 0.000030 0.200780 0.069126 -110.320030 322.776428
[R_front_hand]
1 238.847015 -0.006795 2.210259 -2.635298 -10.645461 -26.312506 238.857239
2 238.847015 -0.006795 2.210259 -2.078645 -10.765769 -29.311871 238.857239
[R_weapon_bone]
1 155.664093 0.002503 -0.000030 0.003487 0.001180 -90.988930 155.664078
2 155.664093 0.002503 -0.000030 0.003487 0.001180 -90.988914 155.664078
[R_front_hand01_01]
1 87.624611 14.231146 22.918642 -154.633499 -59.950619 61.746044 91.683487
2 87.624611 14.231146 22.918642 -154.633484 -59.950619 61.746037 91.683487
[R_front_hand02_01]
1 89.356956 14.367283 -19.491137 154.602661 58.302849 63.744389 92.579636
2 89.356956 14.367283 -19.491137 154.602661 58.302849 63.744389 92.579636
[R_front_hand03_01]
1 87.286232 -22.307278 -0.143439 0.162155 -0.423168 -75.767921 90.091743
2 87.286232 -22.307278 -0.143439 0.162155 -0.423168 -75.767906 90.091743
[R_front_hand01_02]
1 71.020905 0.000060 0.000119 0.002323 -0.000334 106.381714 71.020905
2 71.020905 0.000060 0.000119 0.002323 -0.000334 106.381714 71.020905
[R_front_hand02_02]
1 71.020844 -0.000030 -0.000119 0.002323 -0.000334 106.381714 71.020836
2 71.020844 -0.000030 -0.000119 0.002323 -0.000334 106.381714 71.020836
[R_front_hand03_02]
1 71.020905 0.000000 0.000030 0.002323 -0.000334 106.381714 71.020905
2 71.020905 0.000000 0.000030 0.002323 -0.000334 106.381714 71.020905
[null_rope01_connect]
1 328.732483 0.000000 -0.000238 -154.483337 -64.791321 -118.914307 328.732483
2 328.732483 0.000000 -0.000238 -154.252335 -65.131142 -128.488113 328.732483
[Rope1_Seg01]
1 -0.000038 0.000038 0.000153 58.496273 4.446345 -123.970314 0.000162
2 -0.000038 0.000037 0.000150 51.818367 1.309747 -121.613884 0.000159
[Rope1_Seg02]
1 139.999863 -0.000179 0.000000 -17.328962 5.461245 3.431916 139.999863
2 139.999863 -0.000179 0.000000 -16.010212 6.375920 2.395846 139.999863
[Rope1_Seg03]
1 139.999924 0.000060 -0.000060 -16.904055 4.560435 5.040455 139.999924
2 139.999924 0.000060 -0.000060 -18.388906 6.212041 3.883480 139.999924
[Rope1_Seg04]
1 139.999924 -0.000060 -0.000119 -15.098401 3.324686 7.222836 139.999924
2 139.999924 -0.000060 -0.000119 -17.598885 4.651796 6.839683 139.999924
[Rope1_Seg05]
1 139.999832 0.000119 -0.000060 -5.725352 -0.523181 5.561267 139.999832
2 139.999832 0.000119 -0.000060 -3.291544 -1.569759 4.417076 139.999832
[Rope1_Seg06]
1 139.999954 0.000119 -0.000060 -1.708864 -0.660473 2.376018 139.999954
2 139.999954 0.000119 -0.000060 -1.130440 -0.834938 1.943897 139.999954
[Rope1_Seg07]
1 139.999985 0.000060 0.000000 -1.179894 -0.318600 1.562968 139.999985
2 139.999985 0.000060 0.000000 -0.932226 -0.358844 1.285588 139.999985
[Rope1_Seg09]
1 121.602913 0.000119 -0.000089 -89.793175 -1.359789 0.847147 121.602913
2 121.602913 0.000119 -0.000089 -89.793175 -1.359789 0.847147 121.602913
[L_mid_hand01]
1 103.859421 1.038730 8.195221 122.491409 -62.517220 -29.998974 104.187431
2 103.859421 1.038730 8.195221 124.819580 -64.267235 -32.597427 104.187431
[L_mid_hand02]
1 105.572853 -4.139662 -10.864139 -163.295013 41.893867 -65.202042 106.211075
2 105.572853 -4.139662 -10.864139 -165.125824 42.469841 -67.932709 106.211075
[L_mid_hand03]
1 104.641464 17.579376 -3.913581 -7.977071 17.043644 68.353111 106.179977
2 104.641464 17.579376 -3.913581 -7.329667 17.320337 70.532539 106.179977
[null_rope02_connect]
1 328.732849 0.000179 -0.000119 -140.208786 68.099197 -35.150627 328.732849
2 328.732849 0.000179 -0.000119 -137.577133 70.089836 -27.104227 328.732849
[Rope2_Seg01]
1 0.000038 0.000153 0.000000 31.424738 12.427632 -43.423504 0.000157
2 0.000039 0.000150 0.000000 56.533287 11.123890 -47.740204 0.000155
[Rope2_Seg02]
1 139.999741 -0.000060 -0.000119 36.887718 -12.035802 -6.639977 139.999756
2 139.999741 -0.000060 -0.000119 14.461012 -11.594482 -0.391979 139.999756
[Rope2_Seg03]
1 140.000107 0.000030 0.000000 -0.701460 -8.820423 4.223474 140.000107
2 140.000107 0.000030 0.000000 -6.009804 -5.425339 5.663158 140.000107
[Rope2_Seg04]
1 139.999802 0.000000 -0.000060 7.426271 -9.516444 -1.368293 139.999802
2 139.999802 0.000000 -0.000060 11.793261 -8.959985 -4.332258 139.999802
[Rope2_Seg05]
1 139.999985 -0.000060 0.000119 10.123401 -9.104429 -5.454638 139.999985
2 139.999985 -0.000060 0.000119 13.179048 -9.949597 -7.304988 139.999985
[Rope2_Seg06]
1 139.999893 -0.000030 -0.000119 3.369452 -4.955025 -1.620036 139.999893
2 139.999893 -0.000030 -0.000119 3.694897 -5.075011 -1.767001 139.999893
[Rope2_Seg07]
1 139.999893 0.000060 -0.000060 1.425705 -2.900081 -0.553938 139.999893
2 139.999893 0.000060 -0.000060 1.693643 -3.039634 -0.740946 139.999893
[Rope2_Seg09]
1 121.338966 0.000089 -0.000060 33.793236 -1.359788 -0.847141 121.338966
2 121.338966 0.000089 -0.000060 33.793236 -1.359788 -0.847141 121.338966
[R_mid_hand01]
1 104.680779 11.144459 -10.335981 -21.814814 43.253063 62.439850 105.778534
2 104.680779 11.144459 -10.335981 -20.005522 43.977985 65.062431 105.778534
[R_mid_hand02]
1 104.070427 2.443552 8.231699 57.026505 -62.880825 30.539303 104.424065
2 104.070427 2.443552 8.231699 54.725475 -64.563515 33.105427 104.424065
[R_mid_hand03]
1 106.028137 -11.221827 -5.996406 -175.434525 15.155500 -70.298363 106.788818
2 106.028137 -11.221827 -5.996406 -175.984314 15.307883 -72.395805 106.788818
[spine02]
1 129.756927 0.001550 0.000119 0.360061 -4.044797 -12.915058 129.756927
2 129.756927 0.001550 0.000119 0.340192 -4.180923 -12.362617 129.756927
[spine03]
1 78.614067 0.081787 -4.898987 1.896495 3.831288 16.473045 78.766602
2 78.614067 0.081776 -4.898987 1.901281 4.089497 16.138815 78.766602
[pelvis]
1 169.435242 0.051022 0.000000 -0.060465 -0.180225 14.087930 169.435257
2 169.435242 0.051022 0.000000 -0.038016 -0.083501 13.395423 169.435257
[null_rope03_connect]
1 -1.257226 -2.466202 137.391083 156.329987 -89.381348 -94.430771 137.418976
2 -1.257226 -2.466202 137.391083 179.360321 -89.352905 -117.276962 137.418976
[null_rope04_connect]
1 -1.259640 -2.480268 -137.844437 156.329987 -89.381348 -94.430771 137.872513
2 -1.259640 -2.480268 -137.844437 179.360321 -89.352905 -117.276962 137.872513
[Rope3_Seg01]
1 0.000000 0.000000 0.000000 -133.046600 22.446251 -81.274422 0.000000
2 0.000000 0.000000 0.000000 -132.047440 17.908985 -80.103310 0.000000
[Rope3_Seg02]
1 139.999924 -0.000119 0.000060 0.129084 -0.619749 -1.611409 139.999924
2 139.999924 -0.000119 0.000060 0.069280 -1.263600 -1.646177 139.999924
[Rope3_Seg03]
1 139.999924 -0.000119 0.000119 0.152104 -0.806433 -2.398307 139.999924
2 139.999924 -0.000119 0.000119 0.142539 -1.260830 -3.358718 139.999924
[Rope3_Seg04]
1 139.999924 0.000119 0.000000 0.088981 -1.148394 -3.773660 139.999924
2 139.999924 0.000119 0.000000 0.024151 -1.328607 -3.218901 139.999924
[Rope3_Seg05]
1 139.999924 -0.000238 0.000060 0.059568 0.909980 4.796052 139.999924
2 139.999924 -0.000238 0.000060 -0.096751 -0.794358 9.166792 139.999924
[Rope3_Seg06]
1 139.999893 -0.000119 -0.000060 0.137443 1.277205 5.955906 139.999893
2 139.999893 -0.000119 -0.000060 -0.227231 -0.415362 7.089286 139.999893
[Rope3_Seg07]
1 139.999771 0.000060 -0.000119 0.276678 0.544269 2.698658 139.999771
2 139.999771 0.000060 -0.000119 0.005984 -0.344878 3.493853 139.999771
[Rope3_Seg08]
1 139.999985 -0.000060 0.000000 0.358241 0.357335 1.728903 139.999985
2 139.999985 -0.000060 0.000000 0.165754 -0.214208 2.187484 139.999985
[Rope3_Seg09]
1 90.185997 -0.000179 -0.000060 89.793228 -1.359877 -0.847183 90.185997
2 90.185997 -0.000179 -0.000060 89.793228 -1.359877 -0.847183 90.185997
[R_rear_hand01]
1 103.366196 -6.073594 -10.757982 -174.771057 24.138128 -66.790482 104.101845
2 103.366196 -6.073594 -10.757982 -175.750656 24.319431 -69.167931 104.101845
[R_rear_hand02]
1 100.509819 12.039542 -7.992327 -17.440544 35.165932 64.409729 101.543350
2 100.509819 12.039542 -7.992327 -15.958945 35.791550 66.963280 101.543350
[R_rear_hand03]
1 101.539970 5.215704 5.435467 76.143005 -65.573051 16.525120 101.819031
2 101.539970 5.215704 5.435467 74.885956 -67.678215 17.894732 101.819031
[Rope4_Seg01]
1 0.000010 0.000038 -0.000153 43.086517 28.650373 -115.692215 0.000158
2 0.000010 0.000037 -0.000150 43.006035 27.166464 -116.254913 0.000155
[Rope4_Seg02]
1 139.999985 0.000060 0.000119 0.218870 2.101608 4.552729 139.999985
2 139.999985 0.000060 0.000119 0.263418 2.110194 4.266460 139.999985
[Rope4_Seg03]
1 139.999924 0.000000 -0.000238 -0.019527 3.104502 6.708830 139.999924
2 139.999924 0.000000 -0.000238 0.080384 3.177669 6.404452 139.999924
[Rope4_Seg04]
1 139.999985 0.000000 0.000119 -2.617524 8.640574 22.120684 139.999985
2 139.999985 0.000000 0.000119 -2.358567 9.132515 23.012238 139.999985
[Rope4_Seg05]
1 139.999802 -0.000060 -0.000119 1.087416 1.267410 -2.019312 139.999802
2 139.999802 -0.000060 -0.000119 3.394437 -0.074719 -9.968199 139.999802
[Rope4_Seg06]
1 139.999924 0.000000 0.000060 6.257334 -5.848389 -23.725906 139.999924
2 139.999924 0.000000 0.000060 4.219812 -5.631185 -21.012209 139.999924
[Rope4_Seg07]
1 139.999802 0.000000 0.000000 0.615489 -1.931712 -6.140304 139.999802
2 139.999802 0.000000 0.000000 0.326396 -1.645945 -5.708370 139.999802
[Rope4_Seg08]
1 139.999924 0.000000 0.000119 -1.369289 -1.041360 -3.226114 139.999924
2 139.999924 0.000000 0.000119 -1.498442 -0.894206 -3.048743 139.999924
[Rope4_Seg09]
1 90.185791 0.000060 0.000060 -135.617828 2.228885 0.850567 90.185791
2 90.185791 0.000060 0.000060 -135.617828 2.228885 0.850567 90.185791
[L_rear_hand01]
1 101.696655 -8.392275 -7.654577 -17.501701 -35.138012 115.701401 102.329041
2 101.696655 -8.392275 -7.654577 -16.003159 -35.771038 113.113571 102.329041
[L_rear_hand02]
1 102.726799 -1.568258 5.773216 76.184814 65.478874 163.526367 102.900848
2 102.726799 -1.568258 5.773216 74.920189 67.616348 162.147324 102.900848
[L_rear_hand03]
1 104.552910 9.721220 -10.420293 -174.728683 -24.129618 -113.309677 105.519653
2 104.552910 9.721220 -10.420293 -175.722000 -24.314543 -110.899895 105.519653
